<svg xmlns="http://www.w3.org/2000/svg" xmlns:xlink="http://www.w3.org/1999/xlink" x="0px" y="0px"  viewBox="0, 0, 400,400" ><g id="svgg"><path id="path0" d="M64.062 39.287 L -0.000 71.595 -0.000 232.672 C -0.000 352.313,1.898 393.750,7.378 393.750 C 11.437 393.750,42.065 379.723,75.443 362.578 L 136.129 331.406 194.627 362.458 C 266.248 400.476,257.141 400.575,335.268 360.937 L 399.943 328.125 399.972 167.188 C 399.990 62.129,397.790 6.250,393.636 6.250 C 390.136 6.250,359.039 20.418,324.532 37.735 L 261.791 69.220 203.559 37.735 C 133.355 -0.223,142.611 -0.326,64.062 39.287 M125.000 173.607 L 125.000 315.964 71.783 342.357 C 42.514 356.873,17.201 368.750,15.533 368.750 C 13.865 368.750,12.500 305.499,12.500 228.192 L 12.500 87.635 67.188 59.759 C 97.266 44.427,122.578 31.740,123.438 31.566 C 124.297 31.392,125.000 95.311,125.000 173.607 M201.850 59.375 L 249.946 84.375 249.973 227.132 L 250.000 369.889 198.438 342.007 L 146.875 314.124 145.194 172.127 C 144.269 94.028,145.817 31.084,148.633 32.252 C 151.449 33.420,175.397 45.625,201.850 59.375 M387.500 171.812 L 387.500 312.375 331.375 340.562 C 300.506 356.066,273.787 368.750,272.000 368.750 C 270.212 368.750,268.750 305.499,268.750 228.192 L 268.750 87.635 323.438 59.759 C 353.516 44.427,380.234 31.740,382.813 31.566 C 385.391 31.392,387.500 94.503,387.500 171.812 M65.625 95.499 L 28.125 115.625 26.236 148.438 C 23.943 188.260,28.147 189.306,81.746 162.250 L 119.386 143.249 117.505 111.178 C 115.178 71.476,112.112 70.549,65.625 95.499 M156.354 95.313 C 156.481 104.855,229.863 145.345,237.960 140.341 C 250.151 132.806,242.488 124.543,206.428 106.340 C 165.394 85.626,156.198 83.601,156.354 95.313 M321.875 113.548 C 276.650 136.700,277.356 136.106,285.478 144.228 C 293.604 152.354,375.000 113.763,375.000 101.784 C 375.000 89.754,363.288 92.348,321.875 113.548 M100.000 114.474 C 100.000 127.139,63.476 156.250,47.587 156.250 C 32.609 156.250,47.663 129.613,70.313 116.038 C 102.455 96.774,100.000 96.903,100.000 114.474 M160.547 141.536 C 158.184 143.900,156.250 147.785,156.250 150.171 C 156.250 155.443,227.066 193.750,236.812 193.750 C 254.746 193.750,240.290 176.308,208.322 159.375 C 163.628 135.701,165.633 136.450,160.547 141.536 M319.219 156.415 C 277.831 179.228,277.268 179.768,285.897 188.397 C 293.444 195.944,375.000 154.797,375.000 143.444 C 375.000 132.532,353.462 137.541,319.219 156.415 M317.188 200.401 C 282.291 218.413,271.312 231.250,290.803 231.250 C 304.724 231.250,375.000 194.658,375.000 187.410 C 375.000 176.624,354.195 181.299,317.188 200.401 M66.009 214.553 C 28.197 235.585,15.434 250.000,34.624 250.000 C 49.739 250.000,119.223 210.795,116.831 203.617 C 112.944 191.956,102.654 194.170,66.009 214.553 M156.250 237.410 L 156.250 274.820 193.572 293.660 C 243.175 318.699,243.750 318.491,243.750 275.469 L 243.750 238.439 208.265 219.219 C 158.568 192.302,156.250 193.113,156.250 237.410 M225.000 269.004 L 225.000 287.754 200.000 275.000 C 179.223 264.400,175.000 259.079,175.000 243.496 L 175.000 224.746 200.000 237.500 C 220.777 248.100,225.000 253.421,225.000 269.004 M64.063 257.982 C 28.750 275.780,12.730 294.026,32.813 293.574 C 45.499 293.289,114.602 253.671,113.995 247.031 C 112.986 235.998,103.595 238.058,64.063 257.982 " stroke="none" fill="#fff" fill-rule="evenodd"></path></g></svg>